<mxfile host="Electron" agent="Mozilla/5.0 (X11; Linux x86_64) AppleWebKit/537.36 (KHTML, like Gecko) draw.io/26.1.1 Chrome/132.0.6834.210 Electron/34.3.3 Safari/537.36" version="26.1.1">
  <diagram id="C5RBs43oDa-KdzZeNtuy" name="Page-1">
    <mxGraphModel dx="1976" dy="2054" grid="1" gridSize="10" guides="1" tooltips="1" connect="1" arrows="1" fold="1" page="1" pageScale="1.4" pageWidth="827" pageHeight="1169" math="0" shadow="0">
      <root>
        <mxCell id="WIyWlLk6GJQsqaUBKTNV-0" />
        <mxCell id="WIyWlLk6GJQsqaUBKTNV-1" parent="WIyWlLk6GJQsqaUBKTNV-0" />
        <mxCell id="ctwbnyeOsI7lr9kB-gZt-62" value="&lt;span style=&quot;font-size: 24px;&quot;&gt;Feature / Fix&amp;nbsp; /Implementation Specification&lt;/span&gt;" style="whiteSpace=wrap;html=1;" vertex="1" parent="WIyWlLk6GJQsqaUBKTNV-1">
          <mxGeometry x="330" y="80" width="210" height="130" as="geometry" />
        </mxCell>
        <mxCell id="ctwbnyeOsI7lr9kB-gZt-57" value="" style="whiteSpace=wrap;html=1;fillColor=#99aaff" vertex="1" parent="WIyWlLk6GJQsqaUBKTNV-1">
          <mxGeometry x="80" y="1011" width="711.25" height="360" as="geometry" />
        </mxCell>
        <mxCell id="ctwbnyeOsI7lr9kB-gZt-56" value="" style="whiteSpace=wrap;html=1;fillColor=#dddddd" vertex="1" parent="WIyWlLk6GJQsqaUBKTNV-1">
          <mxGeometry x="80" y="650" width="711.25" height="361" as="geometry" />
        </mxCell>
        <mxCell id="ctwbnyeOsI7lr9kB-gZt-55" value="" style="whiteSpace=wrap;html=1;fillColor=#99aaaa" vertex="1" parent="WIyWlLk6GJQsqaUBKTNV-1">
          <mxGeometry x="80" y="220" width="710" height="430" as="geometry" />
        </mxCell>
        <mxCell id="ctwbnyeOsI7lr9kB-gZt-4" value="" style="edgeStyle=orthogonalEdgeStyle;rounded=0;orthogonalLoop=1;jettySize=auto;html=1;" edge="1" parent="WIyWlLk6GJQsqaUBKTNV-1" target="WIyWlLk6GJQsqaUBKTNV-6">
          <mxGeometry relative="1" as="geometry">
            <mxPoint x="430" y="210" as="sourcePoint" />
          </mxGeometry>
        </mxCell>
        <mxCell id="ctwbnyeOsI7lr9kB-gZt-3" value="" style="group" vertex="1" connectable="0" parent="WIyWlLk6GJQsqaUBKTNV-1">
          <mxGeometry x="340" y="245" width="180" height="140" as="geometry" />
        </mxCell>
        <mxCell id="ctwbnyeOsI7lr9kB-gZt-1" value="" style="whiteSpace=wrap;html=1;fillColor=#ff9999" vertex="1" parent="ctwbnyeOsI7lr9kB-gZt-3">
          <mxGeometry width="180" height="140" as="geometry" />
        </mxCell>
        <mxCell id="ctwbnyeOsI7lr9kB-gZt-2" value="CODEX" style="whiteSpace=wrap;html=1;" vertex="1" parent="ctwbnyeOsI7lr9kB-gZt-3">
          <mxGeometry width="80" height="30" as="geometry" />
        </mxCell>
        <mxCell id="WIyWlLk6GJQsqaUBKTNV-6" value="Create 4&amp;nbsp;&lt;div&gt;Variations&lt;/div&gt;" style="rhombus;whiteSpace=wrap;html=1;shadow=0;fontFamily=Helvetica;fontSize=12;align=center;strokeWidth=1;spacing=6;spacingTop=-4;" parent="ctwbnyeOsI7lr9kB-gZt-3" vertex="1">
          <mxGeometry x="10" width="160" height="140" as="geometry" />
        </mxCell>
        <mxCell id="ctwbnyeOsI7lr9kB-gZt-24" style="edgeStyle=orthogonalEdgeStyle;rounded=0;orthogonalLoop=1;jettySize=auto;html=1;" edge="1" parent="WIyWlLk6GJQsqaUBKTNV-1" source="ctwbnyeOsI7lr9kB-gZt-5" target="ctwbnyeOsI7lr9kB-gZt-23">
          <mxGeometry relative="1" as="geometry">
            <mxPoint x="170" y="750" as="targetPoint" />
            <Array as="points">
              <mxPoint x="190" y="750" />
            </Array>
          </mxGeometry>
        </mxCell>
        <mxCell id="ctwbnyeOsI7lr9kB-gZt-5" value="Variation 1" style="whiteSpace=wrap;html=1;" vertex="1" parent="WIyWlLk6GJQsqaUBKTNV-1">
          <mxGeometry x="110" y="525" width="120" height="60" as="geometry" />
        </mxCell>
        <mxCell id="ctwbnyeOsI7lr9kB-gZt-25" style="edgeStyle=orthogonalEdgeStyle;rounded=0;orthogonalLoop=1;jettySize=auto;html=1;" edge="1" parent="WIyWlLk6GJQsqaUBKTNV-1" source="ctwbnyeOsI7lr9kB-gZt-6" target="ctwbnyeOsI7lr9kB-gZt-23">
          <mxGeometry relative="1" as="geometry">
            <Array as="points">
              <mxPoint x="390" y="610" />
              <mxPoint x="390" y="610" />
            </Array>
          </mxGeometry>
        </mxCell>
        <mxCell id="ctwbnyeOsI7lr9kB-gZt-6" value="Variation 2" style="whiteSpace=wrap;html=1;" vertex="1" parent="WIyWlLk6GJQsqaUBKTNV-1">
          <mxGeometry x="284" y="525" width="120" height="60" as="geometry" />
        </mxCell>
        <mxCell id="ctwbnyeOsI7lr9kB-gZt-26" style="edgeStyle=orthogonalEdgeStyle;rounded=0;orthogonalLoop=1;jettySize=auto;html=1;entryX=0.686;entryY=0.171;entryDx=0;entryDy=0;entryPerimeter=0;" edge="1" parent="WIyWlLk6GJQsqaUBKTNV-1" source="ctwbnyeOsI7lr9kB-gZt-7" target="ctwbnyeOsI7lr9kB-gZt-23">
          <mxGeometry relative="1" as="geometry">
            <Array as="points">
              <mxPoint x="470" y="632" />
            </Array>
          </mxGeometry>
        </mxCell>
        <mxCell id="ctwbnyeOsI7lr9kB-gZt-7" value="Variation 3" style="whiteSpace=wrap;html=1;" vertex="1" parent="WIyWlLk6GJQsqaUBKTNV-1">
          <mxGeometry x="450" y="525" width="120" height="60" as="geometry" />
        </mxCell>
        <mxCell id="ctwbnyeOsI7lr9kB-gZt-27" style="edgeStyle=orthogonalEdgeStyle;rounded=0;orthogonalLoop=1;jettySize=auto;html=1;" edge="1" parent="WIyWlLk6GJQsqaUBKTNV-1" source="ctwbnyeOsI7lr9kB-gZt-8" target="ctwbnyeOsI7lr9kB-gZt-23">
          <mxGeometry relative="1" as="geometry">
            <mxPoint x="630" y="740" as="targetPoint" />
            <Array as="points">
              <mxPoint x="670" y="750" />
            </Array>
          </mxGeometry>
        </mxCell>
        <mxCell id="ctwbnyeOsI7lr9kB-gZt-8" value="Variation 4" style="whiteSpace=wrap;html=1;" vertex="1" parent="WIyWlLk6GJQsqaUBKTNV-1">
          <mxGeometry x="620" y="525" width="120" height="60" as="geometry" />
        </mxCell>
        <mxCell id="ctwbnyeOsI7lr9kB-gZt-9" style="edgeStyle=orthogonalEdgeStyle;rounded=0;orthogonalLoop=1;jettySize=auto;html=1;entryX=0.667;entryY=0;entryDx=0;entryDy=0;entryPerimeter=0;" edge="1" parent="WIyWlLk6GJQsqaUBKTNV-1" target="ctwbnyeOsI7lr9kB-gZt-5">
          <mxGeometry relative="1" as="geometry">
            <mxPoint x="340" y="295" as="sourcePoint" />
            <mxPoint x="187.03999999999996" y="505" as="targetPoint" />
            <Array as="points">
              <mxPoint x="340" y="315" />
              <mxPoint x="190" y="315" />
            </Array>
          </mxGeometry>
        </mxCell>
        <mxCell id="ctwbnyeOsI7lr9kB-gZt-10" style="edgeStyle=orthogonalEdgeStyle;rounded=0;orthogonalLoop=1;jettySize=auto;html=1;exitX=0.25;exitY=1;exitDx=0;exitDy=0;" edge="1" parent="WIyWlLk6GJQsqaUBKTNV-1" source="ctwbnyeOsI7lr9kB-gZt-1">
          <mxGeometry relative="1" as="geometry">
            <mxPoint x="385" y="520" as="targetPoint" />
            <Array as="points">
              <mxPoint x="385" y="480" />
              <mxPoint x="385" y="480" />
            </Array>
          </mxGeometry>
        </mxCell>
        <mxCell id="ctwbnyeOsI7lr9kB-gZt-16" style="edgeStyle=orthogonalEdgeStyle;rounded=0;orthogonalLoop=1;jettySize=auto;html=1;" edge="1" parent="WIyWlLk6GJQsqaUBKTNV-1" source="ctwbnyeOsI7lr9kB-gZt-1">
          <mxGeometry relative="1" as="geometry">
            <mxPoint x="470" y="520" as="targetPoint" />
            <Array as="points">
              <mxPoint x="470" y="520" />
            </Array>
          </mxGeometry>
        </mxCell>
        <mxCell id="ctwbnyeOsI7lr9kB-gZt-17" style="edgeStyle=orthogonalEdgeStyle;rounded=0;orthogonalLoop=1;jettySize=auto;html=1;entryX=0.575;entryY=0.002;entryDx=0;entryDy=0;entryPerimeter=0;" edge="1" parent="WIyWlLk6GJQsqaUBKTNV-1" source="ctwbnyeOsI7lr9kB-gZt-1" target="ctwbnyeOsI7lr9kB-gZt-8">
          <mxGeometry relative="1" as="geometry">
            <Array as="points">
              <mxPoint x="670" y="315" />
              <mxPoint x="670" y="525" />
            </Array>
          </mxGeometry>
        </mxCell>
        <mxCell id="ctwbnyeOsI7lr9kB-gZt-33" style="edgeStyle=orthogonalEdgeStyle;rounded=0;orthogonalLoop=1;jettySize=auto;html=1;" edge="1" parent="WIyWlLk6GJQsqaUBKTNV-1" source="ctwbnyeOsI7lr9kB-gZt-23" target="ctwbnyeOsI7lr9kB-gZt-31">
          <mxGeometry relative="1" as="geometry" />
        </mxCell>
        <mxCell id="ctwbnyeOsI7lr9kB-gZt-23" value="synthesize&lt;div&gt;to yaml&amp;nbsp;&lt;/div&gt;&lt;div&gt;specifications&lt;/div&gt;" style="rhombus;whiteSpace=wrap;html=1;fillColor=#ccccff" vertex="1" parent="WIyWlLk6GJQsqaUBKTNV-1">
          <mxGeometry x="340" y="680" width="190" height="140" as="geometry" />
        </mxCell>
        <mxCell id="ctwbnyeOsI7lr9kB-gZt-41" style="edgeStyle=orthogonalEdgeStyle;rounded=0;orthogonalLoop=1;jettySize=auto;html=1;exitX=0.847;exitY=0.863;exitDx=0;exitDy=0;exitPerimeter=0;entryX=0.334;entryY=-0.007;entryDx=0;entryDy=0;entryPerimeter=0;" edge="1" parent="WIyWlLk6GJQsqaUBKTNV-1" source="ctwbnyeOsI7lr9kB-gZt-31" target="ctwbnyeOsI7lr9kB-gZt-36">
          <mxGeometry relative="1" as="geometry">
            <mxPoint x="480" y="940" as="targetPoint" />
            <Array as="points">
              <mxPoint x="480" y="909" />
            </Array>
          </mxGeometry>
        </mxCell>
        <mxCell id="ctwbnyeOsI7lr9kB-gZt-31" value="4 Variations" style="ellipse;whiteSpace=wrap;html=1;" vertex="1" parent="WIyWlLk6GJQsqaUBKTNV-1">
          <mxGeometry x="395" y="840" width="80" height="80" as="geometry" />
        </mxCell>
        <mxCell id="ctwbnyeOsI7lr9kB-gZt-45" style="edgeStyle=orthogonalEdgeStyle;rounded=0;orthogonalLoop=1;jettySize=auto;html=1;entryX=0;entryY=0.5;entryDx=0;entryDy=0;" edge="1" parent="WIyWlLk6GJQsqaUBKTNV-1" source="ctwbnyeOsI7lr9kB-gZt-34" target="ctwbnyeOsI7lr9kB-gZt-43">
          <mxGeometry relative="1" as="geometry">
            <Array as="points">
              <mxPoint x="280" y="1019" />
              <mxPoint x="322" y="1019" />
              <mxPoint x="322" y="1095" />
            </Array>
          </mxGeometry>
        </mxCell>
        <mxCell id="ctwbnyeOsI7lr9kB-gZt-34" value="yaml&lt;div&gt;v1&lt;/div&gt;" style="whiteSpace=wrap;html=1;" vertex="1" parent="WIyWlLk6GJQsqaUBKTNV-1">
          <mxGeometry x="250" y="939" width="60" height="60" as="geometry" />
        </mxCell>
        <mxCell id="ctwbnyeOsI7lr9kB-gZt-35" value="yaml&lt;div&gt;v2&lt;/div&gt;" style="whiteSpace=wrap;html=1;" vertex="1" parent="WIyWlLk6GJQsqaUBKTNV-1">
          <mxGeometry x="344" y="939" width="60" height="60" as="geometry" />
        </mxCell>
        <mxCell id="ctwbnyeOsI7lr9kB-gZt-36" value="yaml&lt;div&gt;v3&lt;/div&gt;" style="whiteSpace=wrap;html=1;" vertex="1" parent="WIyWlLk6GJQsqaUBKTNV-1">
          <mxGeometry x="460" y="939" width="60" height="60" as="geometry" />
        </mxCell>
        <mxCell id="ctwbnyeOsI7lr9kB-gZt-49" style="edgeStyle=orthogonalEdgeStyle;rounded=0;orthogonalLoop=1;jettySize=auto;html=1;entryX=1;entryY=0.5;entryDx=0;entryDy=0;" edge="1" parent="WIyWlLk6GJQsqaUBKTNV-1" source="ctwbnyeOsI7lr9kB-gZt-37" target="ctwbnyeOsI7lr9kB-gZt-43">
          <mxGeometry relative="1" as="geometry">
            <Array as="points">
              <mxPoint x="590" y="1019" />
              <mxPoint x="560" y="1019" />
              <mxPoint x="560" y="1095" />
            </Array>
          </mxGeometry>
        </mxCell>
        <mxCell id="ctwbnyeOsI7lr9kB-gZt-37" value="yaml&amp;nbsp;&lt;div&gt;v4&lt;/div&gt;" style="whiteSpace=wrap;html=1;" vertex="1" parent="WIyWlLk6GJQsqaUBKTNV-1">
          <mxGeometry x="560" y="939" width="60" height="60" as="geometry" />
        </mxCell>
        <mxCell id="ctwbnyeOsI7lr9kB-gZt-39" style="edgeStyle=orthogonalEdgeStyle;rounded=0;orthogonalLoop=1;jettySize=auto;html=1;entryX=0.449;entryY=-0.032;entryDx=0;entryDy=0;entryPerimeter=0;" edge="1" parent="WIyWlLk6GJQsqaUBKTNV-1" source="ctwbnyeOsI7lr9kB-gZt-31" target="ctwbnyeOsI7lr9kB-gZt-34">
          <mxGeometry relative="1" as="geometry" />
        </mxCell>
        <mxCell id="ctwbnyeOsI7lr9kB-gZt-40" style="edgeStyle=orthogonalEdgeStyle;rounded=0;orthogonalLoop=1;jettySize=auto;html=1;entryX=0.743;entryY=-0.014;entryDx=0;entryDy=0;entryPerimeter=0;exitX=0.144;exitY=0.846;exitDx=0;exitDy=0;exitPerimeter=0;" edge="1" parent="WIyWlLk6GJQsqaUBKTNV-1" source="ctwbnyeOsI7lr9kB-gZt-31" target="ctwbnyeOsI7lr9kB-gZt-35">
          <mxGeometry relative="1" as="geometry" />
        </mxCell>
        <mxCell id="ctwbnyeOsI7lr9kB-gZt-42" style="edgeStyle=orthogonalEdgeStyle;rounded=0;orthogonalLoop=1;jettySize=auto;html=1;entryX=0.518;entryY=-0.039;entryDx=0;entryDy=0;entryPerimeter=0;" edge="1" parent="WIyWlLk6GJQsqaUBKTNV-1" source="ctwbnyeOsI7lr9kB-gZt-31" target="ctwbnyeOsI7lr9kB-gZt-37">
          <mxGeometry relative="1" as="geometry" />
        </mxCell>
        <mxCell id="ctwbnyeOsI7lr9kB-gZt-53" style="edgeStyle=orthogonalEdgeStyle;rounded=0;orthogonalLoop=1;jettySize=auto;html=1;entryX=0.5;entryY=0;entryDx=0;entryDy=0;" edge="1" parent="WIyWlLk6GJQsqaUBKTNV-1" source="ctwbnyeOsI7lr9kB-gZt-43" target="ctwbnyeOsI7lr9kB-gZt-50">
          <mxGeometry relative="1" as="geometry" />
        </mxCell>
        <mxCell id="ctwbnyeOsI7lr9kB-gZt-43" value="synthesize to&lt;div&gt;single yaml&lt;/div&gt;&lt;div&gt;specification&amp;nbsp;&lt;/div&gt;&lt;div&gt;doc&lt;/div&gt;" style="rhombus;whiteSpace=wrap;html=1;fillColor=#99aaaa" vertex="1" parent="WIyWlLk6GJQsqaUBKTNV-1">
          <mxGeometry x="342.5" y="1030" width="187.5" height="130" as="geometry" />
        </mxCell>
        <mxCell id="ctwbnyeOsI7lr9kB-gZt-47" style="edgeStyle=orthogonalEdgeStyle;rounded=0;orthogonalLoop=1;jettySize=auto;html=1;entryX=0.168;entryY=0.308;entryDx=0;entryDy=0;entryPerimeter=0;" edge="1" parent="WIyWlLk6GJQsqaUBKTNV-1" source="ctwbnyeOsI7lr9kB-gZt-35" target="ctwbnyeOsI7lr9kB-gZt-43">
          <mxGeometry relative="1" as="geometry" />
        </mxCell>
        <mxCell id="ctwbnyeOsI7lr9kB-gZt-48" style="edgeStyle=orthogonalEdgeStyle;rounded=0;orthogonalLoop=1;jettySize=auto;html=1;entryX=0.783;entryY=0.265;entryDx=0;entryDy=0;entryPerimeter=0;" edge="1" parent="WIyWlLk6GJQsqaUBKTNV-1" source="ctwbnyeOsI7lr9kB-gZt-36" target="ctwbnyeOsI7lr9kB-gZt-43">
          <mxGeometry relative="1" as="geometry" />
        </mxCell>
        <mxCell id="ctwbnyeOsI7lr9kB-gZt-50" value="IMPLEMENT" style="whiteSpace=wrap;html=1;fillColor=#aa99aa" vertex="1" parent="WIyWlLk6GJQsqaUBKTNV-1">
          <mxGeometry x="344" y="1210" width="183.75" height="130" as="geometry" />
        </mxCell>
        <mxCell id="ctwbnyeOsI7lr9kB-gZt-51" value="&lt;font style=&quot;font-size: 10px;&quot;&gt;CODEX&lt;/font&gt;" style="whiteSpace=wrap;html=1;" vertex="1" parent="WIyWlLk6GJQsqaUBKTNV-1">
          <mxGeometry x="413" y="700" width="44" height="25" as="geometry" />
        </mxCell>
        <mxCell id="ctwbnyeOsI7lr9kB-gZt-52" value="&lt;font style=&quot;font-size: 10px;&quot;&gt;CODEX&lt;/font&gt;" style="whiteSpace=wrap;html=1;" vertex="1" parent="WIyWlLk6GJQsqaUBKTNV-1">
          <mxGeometry x="344.38" y="1220" width="44" height="25" as="geometry" />
        </mxCell>
        <mxCell id="ctwbnyeOsI7lr9kB-gZt-54" value="GPT5" style="rhombus;whiteSpace=wrap;html=1;" vertex="1" parent="WIyWlLk6GJQsqaUBKTNV-1">
          <mxGeometry x="406.25" y="1030" width="60" height="40" as="geometry" />
        </mxCell>
        <mxCell id="ctwbnyeOsI7lr9kB-gZt-58" value="&lt;font style=&quot;font-size: 24px;&quot;&gt;STAGE 1&lt;/font&gt;" style="whiteSpace=wrap;html=1;rotation=-90;" vertex="1" parent="WIyWlLk6GJQsqaUBKTNV-1">
          <mxGeometry x="40" y="270" width="150" height="60" as="geometry" />
        </mxCell>
        <mxCell id="ctwbnyeOsI7lr9kB-gZt-59" value="&lt;font style=&quot;font-size: 24px;&quot;&gt;STAGE 2&lt;/font&gt;" style="whiteSpace=wrap;html=1;rotation=-90;" vertex="1" parent="WIyWlLk6GJQsqaUBKTNV-1">
          <mxGeometry x="40" y="700" width="150" height="60" as="geometry" />
        </mxCell>
        <mxCell id="ctwbnyeOsI7lr9kB-gZt-60" value="&lt;font style=&quot;font-size: 24px;&quot;&gt;STAGE 3&lt;/font&gt;" style="whiteSpace=wrap;html=1;rotation=-90;" vertex="1" parent="WIyWlLk6GJQsqaUBKTNV-1">
          <mxGeometry x="40" y="1060" width="150" height="60" as="geometry" />
        </mxCell>
        <mxCell id="ctwbnyeOsI7lr9kB-gZt-63" value="&lt;font style=&quot;font-size: 24px;&quot;&gt;STAGE 0&lt;/font&gt;" style="whiteSpace=wrap;html=1;rotation=-90;" vertex="1" parent="WIyWlLk6GJQsqaUBKTNV-1">
          <mxGeometry x="40" y="90" width="150" height="60" as="geometry" />
        </mxCell>
      </root>
    </mxGraphModel>
  </diagram>
</mxfile>
